<svg xmlns="http://www.w3.org/2000/svg" xmlns:xlink="http://www.w3.org/1999/xlink" width="500" zoomAndPan="magnify" viewBox="0 0 375 374.999991" height="500" preserveAspectRatio="xMidYMid meet" version="1.0"><defs><g/><clipPath id="5436d5018e"><path d="M 147 146 L 215 146 L 215 213.683594 L 147 213.683594 Z M 147 146 " clip-rule="nonzero"/></clipPath><clipPath id="013bb31336"><path d="M 231 108.683594 L 251.949219 108.683594 L 251.949219 130 L 231 130 Z M 231 108.683594 " clip-rule="nonzero"/></clipPath></defs><rect x="-37.5" width="450" fill="#ffffff" y="-37.499999" height="449.999989" fill-opacity="1"/><rect x="-37.5" width="450" fill="#ffffff" y="-37.499999" height="449.999989" fill-opacity="1"/><rect x="-37.5" width="450" fill="#202020" y="-37.499999" height="449.999989" fill-opacity="1"/><g clip-path="url(#5436d5018e)"><path fill="#ffffff" d="M 178.527344 213.566406 C 171.410156 213.566406 163.496094 209.871094 157.195312 203.570312 C 150.675781 197.050781 146.941406 188.792969 147.210938 181.472656 C 147.273438 180.316406 147.453125 179.175781 147.761719 178.058594 C 148.070312 176.941406 148.492188 175.867188 149.03125 174.84375 C 149.574219 173.816406 150.21875 172.859375 150.964844 171.976562 C 151.714844 171.089844 152.550781 170.292969 153.472656 169.589844 L 154.152344 169.054688 C 156.226562 167.429688 158.503906 166.15625 160.976562 165.242188 C 163.449219 164.320312 166.003906 163.804688 168.640625 163.699219 C 169.667969 163.652344 170.671875 163.476562 171.652344 163.164062 C 172.632812 162.855469 173.554688 162.425781 174.421875 161.875 C 175.289062 161.324219 176.070312 160.671875 176.769531 159.914062 C 177.464844 159.160156 178.050781 158.328125 178.53125 157.417969 L 180.945312 152.808594 C 181.707031 151.308594 182.734375 150.027344 184.035156 148.960938 C 185.332031 147.890625 186.792969 147.132812 188.410156 146.675781 C 189.535156 146.386719 190.675781 146.242188 191.839844 146.25 C 193 146.257812 194.140625 146.414062 195.261719 146.71875 C 196.382812 147.023438 197.445312 147.464844 198.453125 148.046875 C 199.457031 148.628906 200.371094 149.328125 201.195312 150.148438 L 203.410156 152.367188 C 203.5625 152.527344 203.636719 152.714844 203.636719 152.933594 C 203.632812 153.152344 203.554688 153.339844 203.402344 153.496094 C 203.246094 153.652344 203.058594 153.730469 202.839844 153.734375 C 202.617188 153.734375 202.429688 153.660156 202.273438 153.507812 L 200.054688 151.289062 C 199.332031 150.570312 198.527344 149.953125 197.644531 149.441406 C 196.761719 148.933594 195.824219 148.542969 194.839844 148.273438 C 193.855469 148.007812 192.851562 147.871094 191.832031 147.863281 C 190.808594 147.859375 189.804688 147.980469 188.816406 148.238281 C 187.417969 148.632812 186.15625 149.296875 185.035156 150.222656 C 183.914062 151.148438 183.023438 152.261719 182.371094 153.558594 L 179.953125 158.167969 C 179.410156 159.203125 178.742188 160.148438 177.949219 161.007812 C 177.160156 161.867188 176.269531 162.609375 175.28125 163.238281 C 174.296875 163.863281 173.246094 164.351562 172.128906 164.703125 C 171.015625 165.054688 169.875 165.257812 168.707031 165.308594 C 166.238281 165.410156 163.847656 165.890625 161.535156 166.75 C 159.21875 167.609375 157.089844 168.800781 155.144531 170.324219 L 154.46875 170.859375 C 153.636719 171.488281 152.886719 172.203125 152.210938 172.996094 C 151.535156 173.792969 150.953125 174.652344 150.46875 175.574219 C 149.980469 176.496094 149.597656 177.460938 149.320312 178.464844 C 149.042969 179.46875 148.875 180.492188 148.820312 181.535156 C 148.570312 188.410156 152.125 196.222656 158.335938 202.433594 C 164.542969 208.640625 172.355469 212.203125 179.226562 211.941406 C 180.269531 211.886719 181.292969 211.722656 182.296875 211.445312 C 183.304688 211.167969 184.265625 210.785156 185.1875 210.296875 C 186.109375 209.808594 186.96875 209.226562 187.765625 208.550781 C 188.558594 207.878906 189.273438 207.125 189.902344 206.292969 L 190.453125 205.613281 C 191.980469 203.675781 193.171875 201.550781 194.027344 199.234375 C 194.882812 196.921875 195.359375 194.53125 195.460938 192.066406 C 195.527344 190.394531 195.898438 188.796875 196.570312 187.269531 C 197.242188 185.738281 198.167969 184.386719 199.351562 183.207031 C 200.3125 182.246094 201.394531 181.449219 202.597656 180.820312 L 207.207031 178.402344 C 208.507812 177.75 209.621094 176.859375 210.542969 175.734375 C 211.46875 174.613281 212.128906 173.351562 212.523438 171.949219 C 212.78125 170.960938 212.90625 169.957031 212.898438 168.9375 C 212.894531 167.917969 212.757812 166.914062 212.492188 165.929688 C 212.222656 164.945312 211.835938 164.011719 211.324219 163.128906 C 210.8125 162.242188 210.199219 161.441406 209.476562 160.71875 L 207.269531 158.507812 C 207.113281 158.351562 207.039062 158.160156 207.042969 157.941406 C 207.042969 157.722656 207.121094 157.535156 207.277344 157.378906 C 207.433594 157.226562 207.621094 157.144531 207.839844 157.144531 C 208.058594 157.140625 208.25 157.21875 208.40625 157.371094 L 210.617188 159.578125 C 211.433594 160.402344 212.136719 161.316406 212.714844 162.320312 C 213.296875 163.324219 213.738281 164.386719 214.042969 165.507812 C 214.347656 166.628906 214.503906 167.769531 214.507812 168.929688 C 214.515625 170.09375 214.371094 171.234375 214.078125 172.359375 C 213.628906 173.976562 212.867188 175.4375 211.800781 176.738281 C 210.734375 178.039062 209.453125 179.070312 207.953125 179.828125 L 203.34375 182.246094 C 202.285156 182.800781 201.335938 183.503906 200.488281 184.347656 C 199.449219 185.382812 198.632812 186.570312 198.039062 187.917969 C 197.449219 189.261719 197.125 190.667969 197.066406 192.132812 C 196.960938 194.769531 196.449219 197.328125 195.535156 199.800781 C 194.621094 202.277344 193.34375 204.550781 191.710938 206.621094 L 191.164062 207.304688 C 190.460938 208.226562 189.664062 209.058594 188.78125 209.808594 C 187.894531 210.558594 186.9375 211.203125 185.914062 211.742188 C 184.886719 212.28125 183.816406 212.707031 182.699219 213.011719 C 181.578125 213.316406 180.441406 213.5 179.285156 213.558594 C 179.035156 213.558594 178.78125 213.566406 178.527344 213.566406 Z M 178.527344 213.566406 " fill-opacity="1" fill-rule="nonzero"/></g><path fill="#ffffff" d="M 188.695312 180.390625 C 188.378906 180.390625 188.0625 180.371094 187.746094 180.335938 C 187.429688 180.296875 187.117188 180.242188 186.808594 180.171875 C 186.5 180.097656 186.195312 180.007812 185.898438 179.902344 C 185.597656 179.792969 185.308594 179.671875 185.023438 179.527344 C 184.738281 179.386719 184.460938 179.230469 184.195312 179.058594 C 183.929688 178.886719 183.671875 178.699219 183.429688 178.5 C 183.183594 178.296875 182.949219 178.082031 182.730469 177.855469 C 182.507812 177.625 182.300781 177.386719 182.109375 177.132812 C 181.914062 176.882812 181.738281 176.617188 181.574219 176.347656 C 181.410156 176.074219 181.265625 175.792969 181.132812 175.503906 C 181.003906 175.214844 180.890625 174.917969 180.792969 174.617188 C 180.695312 174.3125 180.617188 174.007812 180.554688 173.695312 C 180.492188 173.382812 180.449219 173.070312 180.425781 172.753906 C 180.398438 172.4375 180.390625 172.121094 180.402344 171.800781 C 180.414062 171.484375 180.441406 171.167969 180.488281 170.855469 C 180.535156 170.542969 180.601562 170.230469 180.683594 169.925781 C 180.765625 169.617188 180.863281 169.316406 180.980469 169.023438 C 181.097656 168.726562 181.230469 168.4375 181.382812 168.160156 C 181.53125 167.878906 181.695312 167.609375 181.878906 167.347656 C 182.058594 167.085938 182.253906 166.835938 182.464844 166.597656 C 182.671875 166.359375 182.894531 166.132812 183.132812 165.921875 C 183.367188 165.707031 183.613281 165.511719 183.871094 165.324219 C 184.128906 165.140625 184.398438 164.972656 184.675781 164.816406 C 184.953125 164.664062 185.238281 164.527344 185.53125 164.40625 C 185.824219 164.28125 186.125 164.179688 186.429688 164.09375 C 186.734375 164.003906 187.046875 163.9375 187.359375 163.882812 C 187.671875 163.832031 187.988281 163.800781 188.304688 163.785156 C 188.621094 163.769531 188.9375 163.773438 189.253906 163.792969 C 189.570312 163.8125 189.886719 163.851562 190.199219 163.910156 C 190.511719 163.96875 190.820312 164.042969 191.125 164.132812 C 191.425781 164.226562 191.722656 164.335938 192.015625 164.464844 C 192.308594 164.589844 192.589844 164.734375 192.863281 164.890625 C 193.140625 165.050781 193.402344 165.226562 193.660156 165.414062 C 193.914062 165.601562 194.15625 165.804688 194.390625 166.023438 C 194.621094 166.242188 194.839844 166.472656 195.042969 166.714844 C 195.25 166.957031 195.441406 167.207031 195.617188 167.472656 C 195.792969 167.738281 195.953125 168.011719 196.097656 168.292969 C 196.242188 168.574219 196.371094 168.867188 196.480469 169.164062 C 196.59375 169.460938 196.6875 169.761719 196.765625 170.070312 C 196.839844 170.378906 196.902344 170.691406 196.941406 171.003906 C 196.984375 171.320312 197.007812 171.636719 197.011719 171.953125 C 197.015625 172.269531 197.003906 172.585938 196.972656 172.902344 C 196.941406 173.21875 196.890625 173.53125 196.824219 173.84375 C 196.757812 174.152344 196.671875 174.457031 196.570312 174.757812 C 196.464844 175.058594 196.347656 175.351562 196.210938 175.640625 C 196.074219 175.925781 195.921875 176.207031 195.753906 176.476562 C 195.585938 176.746094 195.40625 177.003906 195.207031 177.25 C 195.011719 177.5 194.800781 177.738281 194.574219 177.960938 C 193.796875 178.742188 192.894531 179.339844 191.878906 179.761719 C 190.859375 180.183594 189.796875 180.390625 188.695312 180.390625 Z M 188.683594 165.371094 C 188.167969 165.371094 187.660156 165.429688 187.160156 165.546875 C 186.65625 165.664062 186.175781 165.835938 185.714844 166.0625 C 185.253906 166.292969 184.824219 166.566406 184.425781 166.894531 C 184.027344 167.222656 183.671875 167.589844 183.359375 167.996094 C 183.046875 168.40625 182.78125 168.84375 182.570312 169.3125 C 182.355469 169.78125 182.199219 170.269531 182.101562 170.773438 C 182 171.277344 181.957031 171.789062 181.976562 172.304688 C 181.992188 172.816406 182.066406 173.324219 182.199219 173.820312 C 182.335938 174.316406 182.523438 174.792969 182.765625 175.246094 C 183.007812 175.699219 183.296875 176.121094 183.636719 176.507812 C 183.976562 176.894531 184.355469 177.238281 184.773438 177.539062 C 185.195312 177.839844 185.640625 178.085938 186.117188 178.28125 C 186.59375 178.480469 187.085938 178.621094 187.59375 178.703125 C 188.101562 178.789062 188.609375 178.8125 189.125 178.777344 C 189.636719 178.746094 190.140625 178.652344 190.632812 178.503906 C 191.125 178.351562 191.59375 178.148438 192.039062 177.890625 C 192.488281 177.632812 192.898438 177.328125 193.273438 176.976562 C 193.648438 176.625 193.980469 176.234375 194.265625 175.808594 C 194.550781 175.378906 194.785156 174.925781 194.964844 174.441406 C 195.144531 173.960938 195.269531 173.464844 195.335938 172.953125 C 195.402344 172.441406 195.410156 171.933594 195.359375 171.417969 C 195.308594 170.90625 195.199219 170.40625 195.035156 169.921875 C 194.871094 169.433594 194.652344 168.972656 194.378906 168.535156 C 194.105469 168.097656 193.789062 167.695312 193.421875 167.332031 C 192.796875 166.703125 192.070312 166.21875 191.25 165.878906 C 190.429688 165.539062 189.574219 165.371094 188.683594 165.375 Z M 188.683594 165.371094 " fill-opacity="1" fill-rule="nonzero"/><path fill="#ffffff" d="M 177.324219 196.515625 C 177.101562 196.515625 176.910156 196.4375 176.753906 196.277344 L 164.148438 183.671875 C 163.992188 183.515625 163.910156 183.324219 163.910156 183.101562 C 163.910156 182.882812 163.992188 182.691406 164.148438 182.535156 L 167.609375 179.070312 C 167.765625 178.914062 167.957031 178.835938 168.179688 178.835938 C 168.402344 178.835938 168.589844 178.914062 168.75 179.070312 L 181.355469 191.679688 C 181.511719 191.835938 181.589844 192.023438 181.589844 192.246094 C 181.589844 192.46875 181.511719 192.660156 181.355469 192.816406 L 177.890625 196.277344 C 177.734375 196.4375 177.546875 196.515625 177.324219 196.515625 Z M 165.855469 183.101562 L 177.324219 194.570312 L 179.648438 192.246094 L 168.179688 180.78125 Z M 165.855469 183.101562 " fill-opacity="1" fill-rule="nonzero"/><path fill="#ffffff" d="M 195.871094 170.707031 C 195.511719 170.707031 195.261719 170.542969 195.125 170.210938 C 194.988281 169.878906 195.046875 169.585938 195.300781 169.332031 L 235.71875 128.914062 L 231.859375 125.058594 L 191.445312 165.476562 C 191.285156 165.628906 191.097656 165.703125 190.878906 165.699219 C 190.65625 165.699219 190.46875 165.621094 190.316406 165.464844 C 190.160156 165.308594 190.082031 165.121094 190.078125 164.902344 C 190.078125 164.683594 190.152344 164.492188 190.304688 164.335938 L 231.289062 123.351562 C 231.449219 123.195312 231.636719 123.113281 231.859375 123.113281 C 232.082031 123.113281 232.273438 123.195312 232.429688 123.351562 L 237.421875 128.347656 C 237.578125 128.503906 237.65625 128.695312 237.65625 128.917969 C 237.65625 129.136719 237.578125 129.328125 237.421875 129.484375 L 196.4375 170.472656 C 196.28125 170.628906 196.089844 170.707031 195.871094 170.707031 Z M 195.871094 170.707031 " fill-opacity="1" fill-rule="nonzero"/><g clip-path="url(#013bb31336)"><path fill="#ffffff" d="M 236.855469 129.714844 C 236.683594 129.714844 236.523438 129.664062 236.382812 129.558594 C 236.242188 129.457031 236.144531 129.324219 236.089844 129.15625 C 236.035156 128.992188 236.035156 128.824219 236.089844 128.660156 C 236.144531 128.492188 236.242188 128.359375 236.382812 128.257812 L 250.097656 118.3125 L 247.941406 112.257812 L 242.113281 110.621094 L 232.519531 124.375 C 232.394531 124.5625 232.222656 124.675781 232 124.71875 C 231.777344 124.761719 231.574219 124.714844 231.390625 124.585938 C 231.207031 124.457031 231.09375 124.28125 231.058594 124.058594 C 231.019531 123.835938 231.066406 123.636719 231.199219 123.453125 L 241.121094 109.230469 C 241.21875 109.089844 241.347656 108.992188 241.511719 108.933594 C 241.671875 108.875 241.835938 108.871094 242 108.917969 L 248.777344 110.820312 C 249.046875 110.894531 249.226562 111.0625 249.320312 111.324219 L 251.816406 118.339844 C 251.875 118.511719 251.878906 118.679688 251.828125 118.851562 C 251.773438 119.019531 251.675781 119.160156 251.53125 119.261719 L 237.328125 129.558594 C 237.1875 129.664062 237.03125 129.714844 236.855469 129.714844 Z M 236.855469 129.714844 " fill-opacity="1" fill-rule="nonzero"/></g><path fill="#ffffff" d="M 250.046875 122.925781 C 249.824219 122.925781 249.636719 122.847656 249.480469 122.6875 L 247.867188 121.078125 C 247.714844 120.921875 247.640625 120.730469 247.640625 120.511719 C 247.644531 120.292969 247.722656 120.105469 247.878906 119.949219 C 248.035156 119.792969 248.21875 119.714844 248.441406 119.714844 C 248.660156 119.710938 248.847656 119.789062 249.007812 119.941406 L 250.617188 121.550781 C 250.871094 121.804688 250.929688 122.097656 250.792969 122.425781 C 250.65625 122.757812 250.40625 122.925781 250.046875 122.925781 Z M 250.046875 122.925781 " fill-opacity="1" fill-rule="nonzero"/><path fill="#ffffff" d="M 245.808594 125.554688 C 245.585938 125.554688 245.398438 125.476562 245.238281 125.320312 L 243.886719 123.964844 C 243.734375 123.808594 243.660156 123.621094 243.660156 123.398438 C 243.664062 123.179688 243.742188 122.992188 243.898438 122.835938 C 244.054688 122.683594 244.242188 122.605469 244.460938 122.601562 C 244.679688 122.601562 244.867188 122.675781 245.027344 122.828125 L 246.378906 124.179688 C 246.632812 124.433594 246.691406 124.726562 246.554688 125.058594 C 246.414062 125.390625 246.167969 125.554688 245.808594 125.554688 Z M 245.808594 125.554688 " fill-opacity="1" fill-rule="nonzero"/><path fill="#ffffff" d="M 241.304688 128.707031 C 241.082031 128.707031 240.890625 128.628906 240.734375 128.472656 L 239.445312 127.183594 C 239.292969 127.023438 239.21875 126.835938 239.222656 126.617188 C 239.222656 126.398438 239.300781 126.210938 239.457031 126.054688 C 239.613281 125.898438 239.800781 125.820312 240.019531 125.816406 C 240.238281 125.816406 240.429688 125.890625 240.585938 126.042969 L 241.875 127.332031 C 242.128906 127.585938 242.1875 127.878906 242.046875 128.210938 C 241.910156 128.542969 241.664062 128.707031 241.304688 128.707031 Z M 241.304688 128.707031 " fill-opacity="1" fill-rule="nonzero"/><path fill="#ffffff" d="M 239.925781 112.804688 C 239.703125 112.804688 239.515625 112.722656 239.355469 112.566406 L 237.746094 110.957031 C 237.585938 110.800781 237.503906 110.609375 237.5 110.382812 C 237.5 110.160156 237.578125 109.96875 237.738281 109.808594 C 237.894531 109.648438 238.085938 109.570312 238.3125 109.574219 C 238.539062 109.574219 238.730469 109.65625 238.886719 109.816406 L 240.496094 111.429688 C 240.75 111.683594 240.808594 111.976562 240.667969 112.304688 C 240.53125 112.636719 240.285156 112.804688 239.925781 112.804688 Z M 239.925781 112.804688 " fill-opacity="1" fill-rule="nonzero"/><path fill="#ffffff" d="M 237.039062 116.785156 C 236.816406 116.785156 236.628906 116.707031 236.46875 116.550781 L 235.121094 115.195312 C 234.957031 115.039062 234.875 114.851562 234.875 114.625 C 234.871094 114.398438 234.953125 114.207031 235.109375 114.046875 C 235.269531 113.890625 235.460938 113.8125 235.6875 113.8125 C 235.914062 113.816406 236.101562 113.898438 236.257812 114.058594 L 237.609375 115.410156 C 237.863281 115.664062 237.921875 115.953125 237.785156 116.285156 C 237.644531 116.617188 237.398438 116.785156 237.039062 116.785156 Z M 237.039062 116.785156 " fill-opacity="1" fill-rule="nonzero"/><path fill="#ffffff" d="M 233.820312 121.222656 C 233.597656 121.222656 233.410156 121.144531 233.25 120.988281 L 231.964844 119.699219 C 231.8125 119.542969 231.734375 119.351562 231.738281 119.132812 C 231.738281 118.914062 231.816406 118.726562 231.972656 118.570312 C 232.128906 118.414062 232.316406 118.335938 232.535156 118.335938 C 232.753906 118.332031 232.945312 118.410156 233.101562 118.5625 L 234.390625 119.847656 C 234.644531 120.101562 234.703125 120.394531 234.566406 120.726562 C 234.425781 121.058594 234.179688 121.222656 233.820312 121.222656 Z M 233.820312 121.222656 " fill-opacity="1" fill-rule="nonzero"/><path fill="#ffffff" d="M 240.730469 122.726562 C 240.554688 122.726562 240.398438 122.675781 240.257812 122.574219 C 240.117188 122.46875 240.019531 122.335938 239.964844 122.167969 C 239.910156 122 239.910156 121.835938 239.964844 121.667969 C 240.019531 121.503906 240.121094 121.367188 240.261719 121.265625 L 246.128906 117.0625 C 246.3125 116.929688 246.511719 116.878906 246.734375 116.914062 C 246.957031 116.949219 247.132812 117.058594 247.265625 117.242188 C 247.394531 117.425781 247.441406 117.628906 247.402344 117.847656 C 247.363281 118.070312 247.253906 118.246094 247.066406 118.375 L 241.199219 122.574219 C 241.058594 122.675781 240.902344 122.726562 240.730469 122.726562 Z M 240.730469 122.726562 " fill-opacity="1" fill-rule="nonzero"/><path fill="#ffffff" d="M 238.597656 120.59375 C 238.269531 120.59375 238.03125 120.449219 237.882812 120.15625 C 237.734375 119.867188 237.753906 119.585938 237.945312 119.320312 L 242.148438 113.453125 C 242.277344 113.273438 242.449219 113.164062 242.671875 113.128906 C 242.890625 113.089844 243.089844 113.136719 243.269531 113.265625 C 243.453125 113.398438 243.558594 113.570312 243.597656 113.789062 C 243.632812 114.011719 243.585938 114.210938 243.457031 114.390625 L 239.253906 120.257812 C 239.09375 120.484375 238.875 120.59375 238.597656 120.59375 Z M 238.597656 120.59375 " fill-opacity="1" fill-rule="nonzero"/><g fill="#ffffff" fill-opacity="1"><g transform="translate(122.359659, 248.714025)"><g><path d="M 10.714844 0.738281 L 12.140625 0.84375 L 12.667969 0.792969 L 13.515625 0.6875 L 14.148438 0.527344 L 14.9375 0.421875 L 15.414062 0.210938 L 16.152344 0.105469 L 16.785156 -0.265625 L 17.472656 -0.527344 L 18 -0.84375 L 18.582031 -1.214844 L 19.164062 -1.53125 L 19.691406 -2.058594 L 20.21875 -2.480469 L 20.796875 -2.902344 L 21.117188 -3.484375 L 21.644531 -3.960938 L 21.960938 -4.644531 L 22.328125 -5.226562 L 22.644531 -5.753906 L 23.015625 -6.441406 L 23.175781 -7.074219 L 23.386719 -7.8125 L 23.492188 -8.5 L 23.597656 -9.132812 L 23.753906 -9.820312 L 23.808594 -11.296875 L 23.703125 -11.984375 L 23.597656 -12.667969 L 23.597656 -13.304688 L 23.386719 -13.988281 L 22.964844 -14.570312 L 22.644531 -15.257812 L 22.328125 -15.785156 L 21.90625 -16.417969 L 20.957031 -17.316406 L 20.480469 -17.84375 L 20.007812 -18.316406 L 19.53125 -18.738281 L 18.898438 -19.214844 L 18.265625 -19.585938 L 17.789062 -20.007812 L 17.210938 -20.324219 L 16.628906 -20.851562 L 16.207031 -21.167969 L 15.679688 -21.695312 L 15.042969 -22.117188 L 14.621094 -22.539062 L 13.988281 -23.015625 L 13.621094 -23.542969 L 13.195312 -24.019531 L 12.828125 -24.597656 L 12.511719 -25.285156 L 12.300781 -25.972656 L 12.246094 -26.660156 L 12.140625 -27.238281 L 12.195312 -28.664062 L 12.246094 -29.402344 L 12.457031 -30.089844 L 12.878906 -30.671875 L 13.25 -31.304688 L 13.621094 -31.777344 L 14.09375 -32.359375 L 14.464844 -32.886719 L 14.992188 -33.203125 L 15.730469 -33.574219 L 16.3125 -33.890625 L 16.945312 -33.996094 L 17.632812 -34.261719 L 18.265625 -34.3125 L 19.796875 -34.261719 L 20.324219 -34.207031 L 21.117188 -34.046875 L 21.75 -33.730469 L 22.382812 -33.519531 L 22.964844 -32.992188 L 23.332031 -32.464844 L 23.859375 -31.988281 L 24.070312 -31.25 L 24.386719 -30.671875 L 24.335938 -29.984375 L 24.441406 -28.558594 L 24.230469 -28.03125 L 24.230469 -27.398438 L 24.652344 -26.765625 L 26.816406 -26.765625 L 27.714844 -27.34375 L 27.765625 -28.082031 L 27.765625 -28.929688 L 27.976562 -30.300781 L 27.820312 -30.988281 L 27.765625 -31.671875 L 27.554688 -32.359375 L 27.238281 -33.046875 L 27.027344 -33.679688 L 26.660156 -34.15625 L 26.339844 -34.789062 L 25.707031 -35.367188 L 25.390625 -35.84375 L 24.652344 -36.214844 L 24.125 -36.582031 L 23.597656 -36.898438 L 22.859375 -37.109375 L 22.222656 -37.320312 L 21.484375 -37.480469 L 20.851562 -37.691406 L 20.21875 -37.636719 L 18.738281 -37.691406 L 18.054688 -37.585938 L 17.316406 -37.636719 L 16.679688 -37.425781 L 16.046875 -37.214844 L 15.519531 -37.058594 L 14.726562 -36.898438 L 14.148438 -36.582031 L 13.621094 -36.320312 L 13.039062 -35.949219 L 12.5625 -35.527344 L 11.929688 -35.105469 L 11.457031 -34.578125 L 11.03125 -34.101562 L 10.503906 -33.574219 L 10.242188 -32.992188 L 9.871094 -32.464844 L 9.660156 -31.882812 L 9.34375 -31.199219 L 9.027344 -30.511719 L 8.816406 -29.929688 L 8.710938 -29.246094 L 8.65625 -28.558594 L 8.445312 -27.238281 L 8.550781 -26.554688 L 8.605469 -25.761719 L 8.761719 -25.128906 L 8.921875 -24.441406 L 9.183594 -23.808594 L 9.554688 -23.175781 L 9.765625 -22.59375 L 10.347656 -22.066406 L 10.609375 -21.433594 L 11.136719 -20.90625 L 11.71875 -20.429688 L 12.140625 -20.058594 L 12.773438 -19.636719 L 13.304688 -19.109375 L 13.777344 -18.6875 L 14.359375 -18.371094 L 14.886719 -17.949219 L 15.519531 -17.527344 L 16.101562 -17.105469 L 17.15625 -16.207031 L 17.578125 -15.835938 L 18.105469 -15.203125 L 18.527344 -14.832031 L 18.898438 -14.199219 L 19.425781 -13.621094 L 19.585938 -12.984375 L 19.847656 -12.351562 L 19.902344 -11.667969 L 20.113281 -11.03125 L 19.902344 -9.609375 L 19.742188 -8.921875 L 19.53125 -7.65625 L 19.164062 -6.914062 L 18.6875 -6.386719 L 18.371094 -5.753906 L 18 -5.332031 L 17.527344 -4.855469 L 16.785156 -4.328125 L 16.3125 -4.011719 L 15.730469 -3.640625 L 14.992188 -3.484375 L 14.359375 -3.21875 L 13.671875 -3.0625 L 13.039062 -3.007812 L 12.300781 -2.851562 L 10.980469 -2.851562 L 10.242188 -2.957031 L 9.660156 -3.0625 L 8.972656 -3.324219 L 8.339844 -3.429688 L 7.65625 -3.695312 L 7.074219 -3.960938 L 6.386719 -4.222656 L 5.703125 -4.539062 L 5.277344 -4.960938 L 4.59375 -5.332031 L 4.117188 -5.753906 L 3.535156 -6.230469 L 3.113281 -6.757812 L 2.535156 -7.179688 L 1.902344 -7.285156 L 1.53125 -6.703125 L 1.265625 -6.230469 L 0.84375 -5.648438 L 0.527344 -5.171875 L 0.582031 -4.117188 L 0.949219 -3.589844 L 1.953125 -2.640625 L 2.535156 -2.324219 L 3.21875 -1.792969 L 3.640625 -1.53125 L 4.382812 -1.214844 L 4.804688 -0.84375 L 5.542969 -0.582031 L 6.019531 -0.265625 L 6.757812 -0.105469 L 7.335938 0.210938 L 8.023438 0.316406 L 8.761719 0.527344 L 9.289062 0.582031 L 10.136719 0.792969 Z M 10.714844 0.738281 "/></g></g></g><g fill="#ffffff" fill-opacity="1"><g transform="translate(149.279458, 248.714025)"><g><path d="M 18.953125 -11.984375 L 18.160156 -11.824219 L 17.683594 -11.136719 L 17.421875 -10.558594 L 17.050781 -9.925781 L 16.628906 -9.394531 L 16.3125 -8.710938 L 15.785156 -8.234375 L 15.414062 -7.65625 L 15.148438 -7.019531 L 14.570312 -6.546875 L 14.09375 -5.964844 L 13.832031 -5.488281 L 13.195312 -5.015625 L 12.773438 -4.59375 L 12.195312 -4.117188 L 11.667969 -3.695312 L 11.136719 -3.324219 L 10.503906 -3.007812 L 9.765625 -2.796875 L 9.238281 -2.640625 L 8.65625 -2.480469 L 7.230469 -2.535156 L 6.441406 -2.902344 L 5.914062 -3.378906 L 5.59375 -3.960938 L 5.226562 -4.644531 L 5.332031 -6.019531 L 5.4375 -6.757812 L 5.332031 -7.390625 L 5.542969 -7.972656 L 5.703125 -8.65625 L 5.753906 -9.394531 L 5.964844 -10.03125 L 6.070312 -10.714844 L 6.175781 -11.402344 L 6.492188 -11.984375 L 6.652344 -12.773438 L 6.808594 -13.410156 L 6.914062 -14.09375 L 7.074219 -14.675781 L 7.285156 -15.414062 L 7.390625 -15.941406 L 7.601562 -16.679688 L 7.8125 -17.261719 L 7.972656 -17.949219 L 8.234375 -18.582031 L 8.5 -19.320312 L 8.65625 -20.007812 L 9.554688 -20.691406 L 10.292969 -20.585938 L 10.820312 -20.691406 L 11.667969 -20.691406 L 12.300781 -20.585938 L 12.984375 -20.640625 L 13.832031 -20.585938 L 14.570312 -20.585938 L 15.203125 -20.691406 L 15.890625 -20.640625 L 16.890625 -21.273438 L 17.105469 -22.066406 L 17.261719 -22.753906 L 16.785156 -23.542969 L 15.996094 -23.492188 L 15.308594 -23.4375 L 13.9375 -23.4375 L 13.25 -23.492188 L 12.457031 -23.4375 L 10.398438 -23.4375 L 9.765625 -24.125 L 10.242188 -25.496094 L 10.503906 -26.234375 L 10.609375 -26.921875 L 10.820312 -27.554688 L 10.925781 -28.242188 L 11.191406 -28.875 L 11.347656 -29.613281 L 11.613281 -30.195312 L 11.773438 -30.882812 L 12.035156 -31.515625 L 12.300781 -32.308594 L 12.351562 -32.992188 L 12.617188 -33.574219 L 12.140625 -34.261719 L 11.507812 -34.15625 L 10.769531 -34.046875 L 9.976562 -34.046875 L 9.132812 -33.308594 L 8.972656 -32.730469 L 8.710938 -31.9375 L 8.5 -31.410156 L 8.394531 -30.617188 L 8.128906 -29.984375 L 7.867188 -29.402344 L 7.8125 -28.769531 L 7.496094 -28.03125 L 7.335938 -27.34375 L 7.230469 -26.765625 L 7.019531 -26.078125 L 6.703125 -25.496094 L 6.597656 -24.707031 L 6.28125 -24.070312 L 5.542969 -23.4375 L 4.855469 -23.492188 L 4.277344 -23.542969 L 2.902344 -23.4375 L 2.113281 -22.804688 L 1.847656 -22.011719 L 1.582031 -21.273438 L 2.007812 -20.585938 L 2.796875 -20.640625 L 3.429688 -20.691406 L 4.644531 -20.691406 L 5.066406 -19.953125 L 4.855469 -19.214844 L 4.75 -18.582031 L 4.59375 -17.894531 L 4.433594 -17.316406 L 4.117188 -16.628906 L 4.011719 -15.835938 L 3.855469 -15.308594 L 3.589844 -14.621094 L 3.484375 -13.9375 L 3.273438 -13.144531 L 3.007812 -12.511719 L 3.007812 -11.878906 L 2.691406 -11.136719 L 2.585938 -10.453125 L 2.429688 -9.871094 L 2.269531 -9.183594 L 2.269531 -8.445312 L 2.058594 -7.867188 L 1.953125 -7.230469 L 1.847656 -6.546875 L 1.847656 -5.964844 L 1.742188 -5.226562 L 1.902344 -4.011719 L 2.007812 -3.21875 L 2.007812 -2.640625 L 2.324219 -1.953125 L 2.746094 -1.265625 L 3.21875 -0.738281 L 3.640625 -0.210938 L 4.117188 0.160156 L 4.960938 0.421875 L 6.335938 0.84375 L 7.65625 0.84375 L 8.394531 0.738281 L 8.921875 0.527344 L 9.660156 0.371094 L 10.347656 0.160156 L 10.820312 -0.105469 L 11.507812 -0.476562 L 12.140625 -0.898438 L 12.617188 -1.371094 L 13.089844 -1.742188 L 13.671875 -2.164062 L 14.199219 -2.746094 L 14.726562 -3.167969 L 15.148438 -3.640625 L 15.519531 -4.171875 L 16.046875 -4.804688 L 16.523438 -5.382812 L 16.839844 -5.808594 L 17.316406 -6.386719 L 17.578125 -7.019531 L 17.949219 -7.546875 L 18.316406 -8.128906 L 18.738281 -8.710938 L 19.164062 -9.394531 L 19.53125 -9.925781 L 19.847656 -10.503906 L 19.585938 -11.507812 Z M 18.953125 -11.984375 "/></g></g></g><g fill="#ffffff" fill-opacity="1"><g transform="translate(164.956282, 248.714025)"><g><path d="M -0.105469 -0.6875 L 0.582031 0.105469 L 1.109375 0.105469 L 1.742188 -0.0546875 L 2.429688 -0.0546875 L 3.324219 -0.6875 L 3.695312 -1.371094 L 3.855469 -2.007812 L 4.011719 -2.640625 L 4.328125 -3.378906 L 4.539062 -4.011719 L 4.644531 -4.699219 L 4.855469 -5.4375 L 5.226562 -6.070312 L 5.4375 -6.757812 L 5.542969 -7.335938 L 5.914062 -7.972656 L 6.125 -8.710938 L 6.335938 -9.289062 L 6.652344 -9.976562 L 6.96875 -10.609375 L 7.230469 -11.296875 L 7.546875 -11.929688 L 7.707031 -12.667969 L 8.023438 -13.25 L 8.394531 -13.9375 L 8.761719 -14.464844 L 8.972656 -15.203125 L 9.503906 -15.730469 L 9.871094 -16.3125 L 10.082031 -16.890625 L 10.609375 -17.472656 L 10.925781 -18.160156 L 11.242188 -18.6875 L 12.246094 -19.636719 L 12.828125 -20.007812 L 13.144531 -20.429688 L 13.726562 -20.746094 L 14.253906 -20.90625 L 15.414062 -20.796875 L 15.996094 -20.585938 L 16.417969 -20.058594 L 16.839844 -19.585938 L 16.996094 -19.003906 L 16.996094 -17.632812 L 16.785156 -16.890625 L 17.261719 -16.363281 L 17.949219 -16.363281 L 18.582031 -16.257812 L 19.214844 -16.257812 L 20.113281 -16.996094 L 20.113281 -17.632812 L 20.324219 -18.371094 L 20.164062 -19.796875 L 20.113281 -20.429688 L 20.007812 -21.0625 L 19.847656 -21.695312 L 19.53125 -22.277344 L 19.058594 -22.964844 L 18.632812 -23.386719 L 18.105469 -23.808594 L 17.367188 -24.070312 L 16.679688 -24.230469 L 15.46875 -24.28125 L 14.675781 -24.070312 L 14.042969 -23.859375 L 13.460938 -23.542969 L 12.933594 -23.121094 L 12.351562 -22.753906 L 11.667969 -22.222656 L 11.347656 -21.695312 L 10.769531 -21.167969 L 10.398438 -20.691406 L 9.976562 -20.007812 L 9.554688 -19.53125 L 9.183594 -18.898438 L 8.816406 -18.316406 L 8.339844 -17.683594 L 8.128906 -16.996094 L 7.65625 -16.46875 L 7.285156 -15.890625 L 7.335938 -16.523438 L 7.496094 -17.261719 L 7.65625 -17.949219 L 7.917969 -18.527344 L 8.128906 -19.214844 L 8.183594 -20.058594 L 8.289062 -20.640625 L 8.445312 -21.433594 L 8.605469 -22.011719 L 8.816406 -22.753906 L 8.183594 -23.492188 L 7.390625 -23.492188 L 6.703125 -23.4375 L 5.753906 -22.753906 L 5.488281 -22.117188 L 5.382812 -21.484375 L 5.277344 -20.796875 L 4.960938 -20.113281 L 4.804688 -19.480469 L 4.75 -18.84375 L 4.433594 -18.160156 L 4.433594 -17.472656 L 4.117188 -16.679688 L 4.011719 -16.101562 L 3.855469 -15.414062 L 3.640625 -14.675781 L 3.589844 -14.09375 L 3.378906 -13.460938 L 3.113281 -12.667969 L 3.0625 -12.035156 L 2.691406 -11.347656 L 2.585938 -10.714844 L 2.429688 -10.03125 L 2.007812 -8.65625 L 1.902344 -8.023438 L 1.792969 -7.335938 L 1.53125 -6.703125 L 1.320312 -5.964844 L 1.214844 -5.277344 L 1.003906 -4.644531 L 0.84375 -4.066406 L 0.792969 -3.378906 L 0.476562 -2.691406 L 0.371094 -2.007812 L 0.160156 -1.320312 Z M -0.105469 -0.6875 "/></g></g></g><g fill="#ffffff" fill-opacity="1"><g transform="translate(185.014163, 248.714025)"><g><path d="M 7.707031 -28.347656 L 8.128906 -27.609375 L 9.027344 -27.660156 L 10.347656 -27.660156 L 11.296875 -28.242188 L 11.5625 -28.929688 L 11.667969 -29.5625 L 11.824219 -30.246094 L 12.035156 -30.882812 L 12.40625 -31.621094 L 12.457031 -32.148438 L 12.667969 -32.78125 L 12.246094 -33.414062 L 11.507812 -33.308594 L 10.03125 -33.308594 L 9.132812 -32.519531 L 8.816406 -31.777344 L 8.65625 -31.039062 L 8.394531 -30.460938 L 8.128906 -29.773438 L 7.867188 -29.085938 Z M 5.4375 0.792969 L 6.757812 0.84375 L 7.496094 0.6875 L 8.234375 0.421875 L 8.761719 0.265625 L 9.503906 -0.0546875 L 9.976562 -0.316406 L 10.558594 -0.84375 L 11.085938 -1.214844 L 11.71875 -1.6875 L 12.089844 -2.058594 L 12.5625 -2.691406 L 13.089844 -3.21875 L 13.410156 -3.640625 L 13.988281 -4.277344 L 14.410156 -4.804688 L 14.675781 -5.277344 L 15.148438 -5.859375 L 15.625 -6.386719 L 15.941406 -7.074219 L 16.257812 -7.65625 L 16.574219 -8.234375 L 17.050781 -8.816406 L 17.421875 -9.34375 L 17.632812 -10.03125 L 17.949219 -10.609375 L 17.894531 -11.613281 L 17.210938 -12.035156 L 16.257812 -11.824219 L 15.996094 -11.191406 L 15.625 -10.664062 L 15.203125 -9.925781 L 14.832031 -9.394531 L 14.570312 -8.761719 L 14.09375 -8.234375 L 13.726562 -7.761719 L 13.410156 -7.179688 L 12.984375 -6.546875 L 12.5625 -5.964844 L 12.140625 -5.4375 L 11.773438 -5.015625 L 11.296875 -4.539062 L 10.609375 -4.117188 L 10.136719 -3.589844 L 9.660156 -3.21875 L 8.972656 -2.957031 L 8.339844 -2.640625 L 7.761719 -2.480469 L 6.597656 -2.640625 L 5.859375 -2.902344 L 5.382812 -3.429688 L 5.121094 -3.960938 L 4.855469 -4.644531 L 4.855469 -5.964844 L 5.066406 -6.597656 L 5.121094 -7.179688 L 5.171875 -7.972656 L 5.332031 -8.5 L 5.59375 -9.238281 L 5.703125 -9.925781 L 5.808594 -10.609375 L 6.019531 -11.191406 L 6.28125 -11.878906 L 6.441406 -12.457031 L 6.652344 -13.144531 L 6.757812 -13.726562 L 6.96875 -14.464844 L 7.179688 -15.148438 L 7.335938 -15.730469 L 7.65625 -16.363281 L 7.65625 -17.050781 L 8.023438 -17.738281 L 8.234375 -18.265625 L 8.339844 -18.953125 L 8.65625 -19.585938 L 8.710938 -20.324219 L 9.027344 -20.957031 L 9.238281 -21.589844 L 9.34375 -22.222656 L 9.714844 -22.804688 L 9.132812 -23.542969 L 8.445312 -23.542969 L 6.96875 -23.4375 L 6.070312 -22.804688 L 5.753906 -22.171875 L 5.59375 -21.433594 L 5.4375 -20.796875 L 5.121094 -20.058594 L 4.855469 -19.425781 L 4.644531 -18.792969 L 4.433594 -18.054688 L 4.328125 -17.421875 L 4.171875 -16.785156 L 3.90625 -16.046875 L 3.695312 -15.46875 L 3.535156 -14.832031 L 3.21875 -14.199219 L 3.113281 -13.410156 L 2.957031 -12.773438 L 2.796875 -12.195312 L 2.429688 -11.457031 L 2.324219 -10.769531 L 2.113281 -10.082031 L 1.953125 -9.449219 L 1.902344 -8.816406 L 1.6875 -8.234375 L 1.6875 -7.546875 L 1.425781 -6.914062 L 1.371094 -6.230469 L 1.265625 -5.648438 L 1.160156 -5.015625 L 1.214844 -3.90625 L 1.425781 -3.167969 L 1.636719 -2.480469 L 1.847656 -1.902344 L 2.21875 -1.214844 L 2.480469 -0.738281 L 3.640625 0.105469 L 4.117188 0.476562 L 4.699219 0.582031 Z M 5.4375 0.792969 "/></g></g></g><g fill="#ffffff" fill-opacity="1"><g transform="translate(198.42128, 248.714025)"><g><path d="M 18.160156 0.792969 L 19.53125 0.84375 L 20.164062 0.632812 L 21.328125 0.210938 L 21.960938 -0.105469 L 22.488281 -0.371094 L 23.070312 -0.84375 L 23.542969 -1.214844 L 24.070312 -1.6875 L 24.546875 -2.164062 L 25.128906 -2.691406 L 25.496094 -3.167969 L 25.972656 -3.800781 L 26.445312 -4.277344 L 26.710938 -4.855469 L 27.132812 -5.382812 L 27.609375 -5.964844 L 27.925781 -6.546875 L 28.1875 -7.074219 L 28.558594 -7.601562 L 28.980469 -8.289062 L 29.351562 -8.867188 L 29.667969 -9.34375 L 30.089844 -9.976562 L 30.460938 -10.503906 L 30.140625 -11.613281 L 29.613281 -11.929688 L 28.613281 -11.773438 L 28.347656 -11.191406 L 27.976562 -10.503906 L 27.449219 -9.925781 L 27.1875 -9.238281 L 26.816406 -8.605469 L 26.394531 -8.078125 L 26.078125 -7.441406 L 25.496094 -6.808594 L 25.074219 -6.335938 L 24.707031 -5.703125 L 23.648438 -4.644531 L 22.699219 -3.800781 L 22.222656 -3.273438 L 21.695312 -2.957031 L 21.0625 -2.640625 L 20.269531 -2.480469 L 19.164062 -2.640625 L 18.6875 -2.902344 L 18.371094 -3.535156 L 18.371094 -4.855469 L 18.316406 -5.488281 L 18.582031 -6.175781 L 18.6875 -6.757812 L 19.058594 -7.441406 L 19.214844 -8.078125 L 19.585938 -8.65625 L 19.691406 -9.289062 L 20.007812 -9.976562 L 20.21875 -10.558594 L 20.585938 -11.242188 L 20.957031 -11.71875 L 21.167969 -12.457031 L 21.273438 -13.089844 L 21.539062 -13.671875 L 21.800781 -14.410156 L 21.960938 -14.992188 L 22.328125 -15.679688 L 22.433594 -16.257812 L 22.59375 -16.996094 L 22.699219 -17.578125 L 22.804688 -18.316406 L 22.753906 -19.691406 L 22.699219 -20.375 L 22.488281 -21.011719 L 22.117188 -21.589844 L 21.855469 -22.277344 L 21.484375 -22.804688 L 20.90625 -23.175781 L 20.269531 -23.648438 L 19.742188 -23.859375 L 19.003906 -24.125 L 18.421875 -24.230469 L 16.890625 -24.175781 L 16.207031 -24.175781 L 15.625 -23.964844 L 15.042969 -23.703125 L 14.304688 -23.332031 L 13.832031 -22.964844 L 13.195312 -22.59375 L 12.722656 -22.222656 L 12.140625 -21.800781 L 11.613281 -21.378906 L 11.242188 -20.796875 L 10.769531 -20.269531 L 10.1875 -19.847656 L 9.820312 -19.214844 L 9.449219 -18.632812 L 9.027344 -18.160156 L 8.65625 -17.632812 L 8.234375 -17.050781 L 7.761719 -16.46875 L 7.390625 -15.785156 L 7.019531 -15.257812 L 7.125 -15.996094 L 7.441406 -16.628906 L 7.441406 -17.316406 L 7.707031 -18 L 7.8125 -18.6875 L 8.183594 -20.058594 L 8.394531 -20.691406 L 8.710938 -21.484375 L 8.867188 -22.171875 L 8.921875 -22.859375 L 8.394531 -23.4375 L 7.761719 -23.542969 L 6.96875 -23.542969 L 5.914062 -22.804688 L 5.808594 -22.171875 L 5.648438 -21.433594 L 5.382812 -20.90625 L 5.226562 -20.269531 L 4.910156 -19.480469 L 4.855469 -18.898438 L 4.644531 -18.316406 L 4.382812 -17.632812 L 4.171875 -16.945312 L 3.960938 -16.3125 L 3.90625 -15.625 L 3.695312 -14.992188 L 3.324219 -14.304688 L 3.324219 -13.621094 L 3.0625 -13.089844 L 2.746094 -12.40625 L 2.746094 -11.773438 L 2.480469 -11.085938 L 2.269531 -10.453125 L 2.007812 -9.714844 L 1.792969 -9.078125 L 1.6875 -8.445312 L 1.371094 -7.8125 L 1.371094 -7.074219 L 1.160156 -6.492188 L 0.898438 -5.914062 L 0.792969 -5.121094 L 0.582031 -4.59375 L 0.210938 -3.855469 L 0.160156 -3.167969 L -0.210938 -2.007812 L -0.476562 -1.214844 L -0.582031 -0.582031 L -0.160156 0.105469 L 0.527344 -0.0546875 L 1.847656 -0.0546875 L 2.851562 -0.582031 L 3.0625 -1.265625 L 3.273438 -2.007812 L 3.484375 -2.585938 L 3.800781 -3.273438 L 3.90625 -3.960938 L 4.277344 -4.644531 L 4.539062 -5.277344 L 4.804688 -5.859375 L 5.121094 -6.597656 L 5.332031 -7.179688 L 5.488281 -7.917969 L 5.964844 -8.5 L 6.230469 -9.132812 L 6.492188 -9.765625 L 6.757812 -10.398438 L 7.125 -11.085938 L 7.335938 -11.71875 L 7.707031 -12.40625 L 8.023438 -12.933594 L 8.394531 -13.621094 L 8.867188 -14.148438 L 9.132812 -14.832031 L 9.503906 -15.414062 L 9.925781 -15.941406 L 10.242188 -16.574219 L 10.820312 -17.050781 L 11.191406 -17.632812 L 11.667969 -18.054688 L 12.140625 -18.632812 L 12.617188 -19.058594 L 13.144531 -19.480469 L 13.566406 -19.902344 L 14.042969 -20.324219 L 15.308594 -20.691406 L 15.941406 -20.957031 L 17.105469 -20.796875 L 17.949219 -20.585938 L 18.476562 -20.113281 L 18.84375 -19.585938 L 19.109375 -18.953125 L 19.003906 -17.578125 L 18.898438 -16.839844 L 18.898438 -16.207031 L 18.582031 -15.574219 L 18.421875 -14.992188 L 18.210938 -14.304688 L 18 -13.671875 L 17.683594 -13.039062 L 17.578125 -12.40625 L 17.316406 -11.773438 L 17.050781 -11.191406 L 16.417969 -9.925781 L 16.101562 -9.289062 L 15.941406 -8.65625 L 15.679688 -8.078125 L 15.574219 -7.496094 L 15.203125 -6.863281 L 15.042969 -6.125 L 14.886719 -5.488281 L 14.726562 -4.804688 L 14.675781 -4.171875 L 14.675781 -2.851562 L 14.832031 -2.113281 L 15.097656 -1.476562 L 15.363281 -0.949219 L 15.679688 -0.476562 L 16.207031 0.0546875 L 17.421875 0.632812 Z M 18.160156 0.792969 "/></g></g></g><g fill="#ffffff" fill-opacity="1"><g transform="translate(224.179833, 248.714025)"><g><path d="M 33.046875 -10.558594 L 32.886719 -11.507812 L 32.253906 -11.984375 L 31.355469 -11.71875 L 30.933594 -11.242188 L 30.722656 -10.664062 L 30.300781 -10.03125 L 30.035156 -9.394531 L 29.5625 -8.921875 L 29.351562 -8.339844 L 28.980469 -7.707031 L 28.558594 -7.125 L 28.03125 -6.597656 L 27.660156 -6.125 L 27.34375 -5.488281 L 26.765625 -5.066406 L 26.339844 -4.59375 L 25.972656 -4.066406 L 25.550781 -3.535156 L 24.96875 -3.113281 L 24.386719 -2.585938 L 23.964844 -2.21875 L 23.492188 -1.6875 L 22.910156 -1.320312 L 22.328125 -0.949219 L 21.695312 -0.582031 L 21.273438 -0.265625 L 20.585938 0.160156 L 19.953125 0.316406 L 19.480469 -0.0546875 L 20.007812 -1.371094 L 20.113281 -2.113281 L 20.429688 -2.796875 L 20.535156 -3.429688 L 20.90625 -4.117188 L 21.011719 -4.855469 L 21.328125 -5.488281 L 21.433594 -6.230469 L 21.644531 -6.914062 L 22.066406 -8.234375 L 22.328125 -8.867188 L 22.539062 -9.503906 L 22.699219 -10.242188 L 22.910156 -10.925781 L 23.28125 -11.457031 L 23.4375 -12.140625 L 23.542969 -12.878906 L 23.703125 -13.460938 L 23.964844 -14.199219 L 24.28125 -14.832031 L 24.492188 -15.46875 L 24.707031 -16.152344 L 24.757812 -16.785156 L 25.074219 -17.472656 L 25.285156 -18.105469 L 25.445312 -18.84375 L 25.707031 -19.480469 L 25.8125 -20.113281 L 26.183594 -20.796875 L 26.234375 -21.539062 L 26.5 -22.117188 L 26.660156 -22.753906 L 26.234375 -23.542969 L 25.445312 -23.542969 L 24.863281 -23.4375 L 23.914062 -22.804688 L 23.648438 -22.117188 L 23.386719 -21.539062 L 23.070312 -20.90625 L 22.753906 -20.21875 L 22.59375 -19.691406 L 22.433594 -18.953125 L 22.011719 -18.316406 L 21.855469 -17.683594 L 21.539062 -18.421875 L 21.433594 -19.164062 L 21.167969 -19.742188 L 20.957031 -20.429688 L 20.691406 -21.0625 L 20.21875 -21.644531 L 19.796875 -22.222656 L 19.320312 -22.699219 L 18.792969 -23.121094 L 18.054688 -23.386719 L 17.421875 -23.808594 L 16.785156 -23.964844 L 16.207031 -24.175781 L 15.519531 -24.28125 L 14.148438 -24.230469 L 12.667969 -23.964844 L 11.929688 -23.808594 L 11.402344 -23.648438 L 10.714844 -23.332031 L 10.082031 -23.015625 L 9.609375 -22.804688 L 8.867188 -22.382812 L 8.289062 -21.960938 L 7.867188 -21.433594 L 7.285156 -20.957031 L 6.808594 -20.585938 L 6.386719 -20.058594 L 5.914062 -19.480469 L 5.59375 -18.84375 L 5.226562 -18.316406 L 4.910156 -17.632812 L 4.433594 -17.105469 L 4.222656 -16.417969 L 4.011719 -15.785156 L 3.640625 -15.148438 L 3.535156 -14.570312 L 3.21875 -13.832031 L 3.167969 -13.089844 L 3.0625 -12.457031 L 2.851562 -11.824219 L 2.902344 -11.085938 L 2.851562 -10.453125 L 2.796875 -9.027344 L 2.796875 -8.234375 L 2.851562 -7.601562 L 3.007812 -6.914062 L 3.324219 -6.230469 L 3.535156 -5.488281 L 3.855469 -4.960938 L 4.066406 -4.328125 L 4.539062 -3.746094 L 4.960938 -3.113281 L 5.4375 -2.746094 L 5.964844 -2.164062 L 6.492188 -1.902344 L 7.019531 -1.425781 L 7.601562 -1.160156 L 8.394531 -0.949219 L 9.027344 -0.84375 L 9.820312 -0.738281 L 11.03125 -0.84375 L 11.773438 -0.84375 L 12.457031 -1.003906 L 13.195312 -1.320312 L 13.9375 -1.53125 L 14.570312 -1.847656 L 15.203125 -2.21875 L 15.679688 -2.640625 L 16.417969 -2.957031 L 16.785156 -3.484375 L 17.367188 -4.066406 L 17.316406 -3.429688 L 17.105469 -2.746094 L 16.945312 -2.164062 L 16.679688 -1.425781 L 16.417969 -0.792969 L 16.363281 -0.160156 L 15.890625 1.054688 L 14.992188 1.792969 L 14.304688 2.007812 L 13.566406 2.164062 L 12.984375 2.21875 L 12.300781 2.429688 L 11.71875 2.535156 L 10.925781 2.691406 L 10.347656 2.957031 L 9.609375 3.167969 L 9.078125 3.429688 L 8.445312 3.535156 L 7.761719 3.90625 L 7.074219 4.171875 L 6.492188 4.382812 L 5.808594 4.699219 L 5.277344 5.066406 L 4.699219 5.4375 L 4.222656 5.808594 L 3.800781 6.28125 L 3.429688 6.863281 L 3.0625 7.335938 L 2.640625 7.972656 L 2.480469 8.605469 L 2.375 9.238281 L 2.164062 9.871094 L 2.269531 11.242188 L 2.375 11.824219 L 2.480469 12.5625 L 2.851562 13.195312 L 3.324219 13.726562 L 3.746094 14.199219 L 4.382812 14.726562 L 5.015625 15.042969 L 5.648438 15.257812 L 6.28125 15.414062 L 6.914062 15.574219 L 8.289062 15.574219 L 9.027344 15.46875 L 9.554688 15.308594 L 10.242188 15.203125 L 10.875 14.992188 L 11.402344 14.675781 L 12.035156 14.253906 L 12.617188 13.9375 L 13.144531 13.355469 L 13.460938 12.933594 L 14.042969 12.457031 L 14.410156 11.824219 L 14.886719 11.296875 L 15.203125 10.769531 L 15.519531 10.082031 L 15.835938 9.554688 L 16.207031 8.867188 L 16.417969 8.394531 L 16.785156 7.761719 L 16.890625 7.019531 L 17.261719 6.492188 L 17.578125 5.808594 L 17.683594 5.226562 L 18 4.644531 L 18.316406 4.011719 L 19.058594 3.0625 L 19.742188 2.851562 L 20.429688 2.640625 L 21.0625 2.324219 L 21.644531 2.007812 L 22.277344 1.6875 L 22.859375 1.265625 L 23.386719 0.84375 L 23.964844 0.421875 L 24.597656 0.105469 L 25.023438 -0.371094 L 25.601562 -0.792969 L 26.078125 -1.265625 L 26.554688 -1.742188 L 27.1875 -2.269531 L 27.554688 -2.691406 L 27.976562 -3.21875 L 28.558594 -3.746094 L 29.035156 -4.328125 L 29.402344 -4.75 L 29.71875 -5.4375 L 30.195312 -5.859375 L 30.671875 -6.492188 L 31.039062 -7.125 L 31.410156 -7.601562 L 31.777344 -8.234375 L 32.042969 -8.761719 L 32.414062 -9.394531 L 32.78125 -9.976562 Z M 12.035156 -3.90625 L 10.714844 -4.011719 L 10.03125 -4.171875 L 9.394531 -4.277344 L 8.183594 -5.015625 L 7.761719 -5.488281 L 7.441406 -5.964844 L 7.125 -6.597656 L 6.703125 -7.179688 L 6.652344 -7.867188 L 6.492188 -8.550781 L 6.28125 -9.289062 L 6.28125 -10.664062 L 6.386719 -11.296875 L 6.597656 -12.035156 L 6.652344 -12.773438 L 6.863281 -13.410156 L 6.96875 -14.042969 L 7.230469 -14.675781 L 7.496094 -15.308594 L 7.707031 -15.941406 L 8.234375 -16.628906 L 8.5 -17.15625 L 8.972656 -17.683594 L 9.289062 -18.210938 L 9.765625 -18.792969 L 10.398438 -19.214844 L 10.925781 -19.585938 L 11.507812 -19.953125 L 11.984375 -20.324219 L 12.667969 -20.640625 L 13.304688 -20.691406 L 13.9375 -20.90625 L 15.308594 -20.851562 L 15.941406 -20.691406 L 16.679688 -20.585938 L 17.210938 -20.21875 L 17.949219 -19.796875 L 18.421875 -19.320312 L 18.84375 -18.6875 L 19.109375 -18.160156 L 19.425781 -17.527344 L 19.636719 -16.839844 L 19.742188 -16.152344 L 19.742188 -15.46875 L 19.796875 -14.09375 L 19.691406 -13.410156 L 19.636719 -12.722656 L 19.53125 -11.984375 L 19.320312 -11.347656 L 19.109375 -10.664062 L 18.953125 -9.976562 L 18.527344 -9.394531 L 18.421875 -8.710938 L 18.054688 -8.234375 L 17.527344 -7.546875 L 17.15625 -7.019531 L 16.785156 -6.597656 L 16.207031 -6.070312 L 15.785156 -5.648438 L 15.148438 -5.121094 L 14.726562 -4.855469 L 13.9375 -4.59375 L 13.460938 -4.222656 L 12.722656 -4.066406 Z M 8.289062 12.40625 L 6.96875 12.457031 L 6.386719 12.300781 L 5.808594 11.824219 L 5.382812 11.347656 L 5.332031 10.664062 L 5.121094 9.394531 L 5.4375 8.816406 L 5.648438 8.183594 L 6.175781 7.601562 L 6.546875 7.230469 L 7.125 6.808594 L 7.65625 6.492188 L 8.445312 6.125 L 8.921875 5.859375 L 9.554688 5.59375 L 10.347656 5.332031 L 10.980469 5.121094 L 11.457031 4.960938 L 12.140625 4.855469 L 12.878906 4.699219 L 13.460938 4.488281 L 14.09375 4.277344 L 14.515625 4.75 L 14.253906 5.382812 L 14.042969 6.125 L 13.671875 6.703125 L 13.515625 7.441406 L 13.039062 8.078125 L 12.722656 8.550781 L 12.511719 9.132812 L 11.984375 9.765625 L 11.5625 10.347656 L 11.242188 10.769531 L 10.769531 11.242188 L 10.136719 11.667969 L 9.503906 12.140625 L 9.078125 12.351562 Z M 8.289062 12.40625 "/></g></g></g><g fill="#ffffff" fill-opacity="1"><g transform="translate(129.636383, 184.226653)"><g><path d="M -5 -11.21875 L 2.75 -8.78125 L 2.4375 -7.75 L -3.34375 -9.5625 L 1.625 -5.1875 L 1.40625 -4.46875 L -5.1875 -3.6875 L 0.59375 -1.875 L 0.265625 -0.859375 L -7.484375 -3.296875 L -7.140625 -4.390625 L 0.171875 -5.25 L -5.328125 -10.125 Z M -5 -11.21875 "/></g></g></g><g fill="#ffffff" fill-opacity="1"><g transform="translate(133.407939, 172.95399)"><g><path d="M -6.46875 -5.359375 L -1.828125 -3.078125 C -1.171875 -2.753906 -0.609375 -2.671875 -0.140625 -2.828125 C 0.328125 -2.992188 0.703125 -3.363281 0.984375 -3.9375 C 1.265625 -4.5 1.328125 -5.015625 1.171875 -5.484375 C 1.015625 -5.960938 0.609375 -6.363281 -0.046875 -6.6875 L -4.6875 -8.96875 L -4.21875 -9.9375 L 0.40625 -7.65625 C 1.007812 -7.363281 1.460938 -6.988281 1.765625 -6.53125 C 2.066406 -6.070312 2.210938 -5.582031 2.203125 -5.0625 C 2.191406 -4.550781 2.0625 -4.035156 1.8125 -3.515625 C 1.550781 -3.003906 1.21875 -2.585938 0.8125 -2.265625 C 0.414062 -1.941406 -0.0507812 -1.757812 -0.59375 -1.71875 C -1.132812 -1.6875 -1.707031 -1.816406 -2.3125 -2.109375 L -6.9375 -4.390625 Z M -6.46875 -5.359375 "/></g></g></g><g fill="#ffffff" fill-opacity="1"><g transform="translate(137.857589, 164.262025)"><g><path d="M 2 -2.859375 C 1.695312 -2.410156 1.347656 -2.0625 0.953125 -1.8125 C 0.554688 -1.570312 0.148438 -1.445312 -0.265625 -1.4375 C -0.679688 -1.425781 -1.070312 -1.539062 -1.4375 -1.78125 L -0.8125 -2.71875 C -0.476562 -2.53125 -0.125 -2.476562 0.25 -2.5625 C 0.625 -2.65625 0.957031 -2.921875 1.25 -3.359375 C 1.53125 -3.785156 1.648438 -4.191406 1.609375 -4.578125 C 1.566406 -4.960938 1.378906 -5.269531 1.046875 -5.5 C 0.785156 -5.664062 0.523438 -5.726562 0.265625 -5.6875 C 0.00390625 -5.65625 -0.238281 -5.5625 -0.46875 -5.40625 C -0.695312 -5.25 -0.984375 -5.019531 -1.328125 -4.71875 C -1.753906 -4.34375 -2.113281 -4.0625 -2.40625 -3.875 C -2.695312 -3.6875 -3.03125 -3.578125 -3.40625 -3.546875 C -3.78125 -3.515625 -4.175781 -3.644531 -4.59375 -3.9375 C -4.96875 -4.1875 -5.238281 -4.5 -5.40625 -4.875 C -5.570312 -5.25 -5.617188 -5.660156 -5.546875 -6.109375 C -5.472656 -6.554688 -5.285156 -7 -4.984375 -7.4375 C -4.554688 -8.082031 -4.046875 -8.503906 -3.453125 -8.703125 C -2.867188 -8.898438 -2.296875 -8.847656 -1.734375 -8.546875 L -2.390625 -7.578125 C -2.671875 -7.703125 -2.992188 -7.710938 -3.359375 -7.609375 C -3.722656 -7.503906 -4.035156 -7.253906 -4.296875 -6.859375 C -4.546875 -6.484375 -4.648438 -6.113281 -4.609375 -5.75 C -4.566406 -5.382812 -4.378906 -5.085938 -4.046875 -4.859375 C -3.796875 -4.691406 -3.546875 -4.625 -3.296875 -4.65625 C -3.046875 -4.695312 -2.8125 -4.789062 -2.59375 -4.9375 C -2.375 -5.09375 -2.085938 -5.320312 -1.734375 -5.625 C -1.304688 -5.988281 -0.941406 -6.269531 -0.640625 -6.46875 C -0.335938 -6.664062 0 -6.773438 0.375 -6.796875 C 0.757812 -6.828125 1.164062 -6.695312 1.59375 -6.40625 C 1.925781 -6.1875 2.175781 -5.890625 2.34375 -5.515625 C 2.519531 -5.148438 2.582031 -4.734375 2.53125 -4.265625 C 2.488281 -3.796875 2.3125 -3.328125 2 -2.859375 Z M 2 -2.859375 "/></g></g></g><g fill="#ffffff" fill-opacity="1"><g transform="translate(142.909593, 157.031736)"><g><path d="M -5.078125 -6.703125 L 1.25 -1.53125 L 0.578125 -0.703125 L -5.75 -5.875 Z M -5.078125 -6.703125 "/></g></g></g><g fill="#ffffff" fill-opacity="1"><g transform="translate(145.894557, 153.274983)"><g><path d="M -2.5 -3.265625 C -3.0625 -3.835938 -3.4375 -4.476562 -3.625 -5.1875 C -3.8125 -5.90625 -3.804688 -6.609375 -3.609375 -7.296875 C -3.421875 -7.992188 -3.054688 -8.609375 -2.515625 -9.140625 C -1.878906 -9.753906 -1.171875 -10.140625 -0.390625 -10.296875 C 0.378906 -10.453125 1.148438 -10.359375 1.921875 -10.015625 L 1.015625 -9.109375 C 0.515625 -9.316406 0.0195312 -9.363281 -0.46875 -9.25 C -0.96875 -9.132812 -1.429688 -8.875 -1.859375 -8.46875 C -2.265625 -8.0625 -2.535156 -7.601562 -2.671875 -7.09375 C -2.804688 -6.59375 -2.796875 -6.070312 -2.640625 -5.53125 C -2.484375 -5 -2.175781 -4.5 -1.71875 -4.03125 C -1.269531 -3.570312 -0.78125 -3.257812 -0.25 -3.09375 C 0.28125 -2.925781 0.800781 -2.90625 1.3125 -3.03125 C 1.820312 -3.15625 2.28125 -3.421875 2.6875 -3.828125 C 3.113281 -4.234375 3.390625 -4.679688 3.515625 -5.171875 C 3.640625 -5.660156 3.609375 -6.15625 3.421875 -6.65625 L 4.328125 -7.5625 C 4.648438 -6.78125 4.722656 -6.003906 4.546875 -5.234375 C 4.367188 -4.460938 3.960938 -3.769531 3.328125 -3.15625 C 2.785156 -2.625 2.164062 -2.269531 1.46875 -2.09375 C 0.769531 -1.914062 0.078125 -1.921875 -0.609375 -2.109375 C -1.304688 -2.304688 -1.9375 -2.691406 -2.5 -3.265625 Z M -2.5 -3.265625 "/></g></g></g><g fill="#ffffff" fill-opacity="1"><g transform="translate(153.906939, 145.823258)"><g/></g></g><g fill="#ffffff" fill-opacity="1"><g transform="translate(157.913411, 142.71122)"><g><path d="M 3 -1.796875 C 2.539062 -1.515625 2.078125 -1.335938 1.609375 -1.265625 C 1.148438 -1.203125 0.726562 -1.25 0.34375 -1.40625 C -0.0390625 -1.5625 -0.359375 -1.828125 -0.609375 -2.203125 L 0.359375 -2.8125 C 0.597656 -2.5 0.90625 -2.304688 1.28125 -2.234375 C 1.65625 -2.171875 2.066406 -2.28125 2.515625 -2.5625 C 2.953125 -2.84375 3.222656 -3.160156 3.328125 -3.515625 C 3.441406 -3.878906 3.390625 -4.234375 3.171875 -4.578125 C 3.003906 -4.847656 2.796875 -5.019531 2.546875 -5.09375 C 2.304688 -5.164062 2.046875 -5.175781 1.765625 -5.125 C 1.492188 -5.070312 1.144531 -4.976562 0.71875 -4.84375 C 0.1875 -4.675781 -0.253906 -4.566406 -0.609375 -4.515625 C -0.960938 -4.460938 -1.3125 -4.5 -1.65625 -4.625 C -2.007812 -4.757812 -2.320312 -5.046875 -2.59375 -5.484375 C -2.832031 -5.859375 -2.953125 -6.25 -2.953125 -6.65625 C -2.953125 -7.0625 -2.828125 -7.453125 -2.578125 -7.828125 C -2.328125 -8.210938 -1.976562 -8.546875 -1.53125 -8.828125 C -0.875 -9.234375 -0.238281 -9.40625 0.375 -9.34375 C 0.988281 -9.289062 1.492188 -9.015625 1.890625 -8.515625 L 0.90625 -7.890625 C 0.707031 -8.117188 0.414062 -8.257812 0.03125 -8.3125 C -0.34375 -8.363281 -0.726562 -8.265625 -1.125 -8.015625 C -1.5 -7.773438 -1.742188 -7.476562 -1.859375 -7.125 C -1.972656 -6.78125 -1.921875 -6.4375 -1.703125 -6.09375 C -1.546875 -5.84375 -1.34375 -5.679688 -1.09375 -5.609375 C -0.851562 -5.535156 -0.601562 -5.519531 -0.34375 -5.5625 C -0.0820312 -5.613281 0.265625 -5.707031 0.703125 -5.84375 C 1.242188 -6.007812 1.691406 -6.113281 2.046875 -6.15625 C 2.410156 -6.207031 2.769531 -6.164062 3.125 -6.03125 C 3.488281 -5.90625 3.804688 -5.628906 4.078125 -5.203125 C 4.296875 -4.859375 4.40625 -4.476562 4.40625 -4.0625 C 4.40625 -3.65625 4.289062 -3.25 4.0625 -2.84375 C 3.832031 -2.445312 3.476562 -2.097656 3 -1.796875 Z M 3 -1.796875 "/></g></g></g><g fill="#ffffff" fill-opacity="1"><g transform="translate(165.392644, 138.147488)"><g><path d="M 1.859375 -9.9375 L 2.234375 -9.15625 L 0.21875 -8.1875 L 3.34375 -1.578125 L 2.390625 -1.125 L -0.734375 -7.734375 L -2.765625 -6.78125 L -3.140625 -7.5625 Z M 1.859375 -9.9375 "/></g></g></g><g fill="#ffffff" fill-opacity="1"><g transform="translate(172.840052, 134.696419)"><g><path d="M -0.671875 -8.375 L 0.9375 -3.46875 C 1.15625 -2.769531 1.488281 -2.304688 1.9375 -2.078125 C 2.382812 -1.859375 2.910156 -1.847656 3.515625 -2.046875 C 4.109375 -2.234375 4.515625 -2.546875 4.734375 -2.984375 C 4.960938 -3.429688 4.96875 -4.003906 4.75 -4.703125 L 3.140625 -9.609375 L 4.171875 -9.953125 L 5.765625 -5.0625 C 5.972656 -4.414062 6.015625 -3.820312 5.890625 -3.28125 C 5.773438 -2.75 5.535156 -2.304688 5.171875 -1.953125 C 4.804688 -1.597656 4.347656 -1.328125 3.796875 -1.140625 C 3.242188 -0.960938 2.707031 -0.90625 2.1875 -0.96875 C 1.675781 -1.039062 1.21875 -1.257812 0.8125 -1.625 C 0.40625 -1.988281 0.0976562 -2.492188 -0.109375 -3.140625 L -1.703125 -8.03125 Z M -0.671875 -8.375 "/></g></g></g><g fill="#ffffff" fill-opacity="1"><g transform="translate(182.13923, 131.788298)"><g><path d="M 1.984375 -8.640625 C 2.847656 -8.796875 3.628906 -8.769531 4.328125 -8.5625 C 5.035156 -8.351562 5.613281 -7.972656 6.0625 -7.421875 C 6.519531 -6.878906 6.820312 -6.195312 6.96875 -5.375 C 7.113281 -4.539062 7.066406 -3.789062 6.828125 -3.125 C 6.585938 -2.457031 6.171875 -1.90625 5.578125 -1.46875 C 4.992188 -1.039062 4.269531 -0.75 3.40625 -0.59375 L 0.890625 -0.15625 L -0.53125 -8.203125 Z M 3.25 -1.453125 C 4.28125 -1.640625 5.019531 -2.054688 5.46875 -2.703125 C 5.925781 -3.359375 6.066406 -4.179688 5.890625 -5.171875 C 5.710938 -6.171875 5.296875 -6.90625 4.640625 -7.375 C 3.992188 -7.84375 3.160156 -7.984375 2.140625 -7.796875 L 0.671875 -7.546875 L 1.78125 -1.203125 Z M 3.25 -1.453125 "/></g></g></g><g fill="#ffffff" fill-opacity="1"><g transform="translate(192.223707, 130.261276)"><g><path d="M 1.40625 -8.296875 L 1.96875 -0.140625 L 0.90625 -0.0625 L 0.34375 -8.21875 Z M 1.40625 -8.296875 "/></g></g></g><g fill="#ffffff" fill-opacity="1"><g transform="translate(197.003193, 129.864924)"><g><path d="M 4.609375 0.28125 C 3.847656 0.25 3.160156 0.046875 2.546875 -0.328125 C 1.941406 -0.710938 1.46875 -1.234375 1.125 -1.890625 C 0.789062 -2.546875 0.644531 -3.273438 0.6875 -4.078125 C 0.71875 -4.878906 0.929688 -5.585938 1.328125 -6.203125 C 1.722656 -6.816406 2.238281 -7.285156 2.875 -7.609375 C 3.519531 -7.929688 4.222656 -8.078125 4.984375 -8.046875 C 5.753906 -8.015625 6.441406 -7.804688 7.046875 -7.421875 C 7.660156 -7.046875 8.128906 -6.53125 8.453125 -5.875 C 8.773438 -5.226562 8.921875 -4.503906 8.890625 -3.703125 C 8.847656 -2.898438 8.632812 -2.1875 8.25 -1.5625 C 7.875 -0.945312 7.363281 -0.476562 6.71875 -0.15625 C 6.082031 0.164062 5.378906 0.3125 4.609375 0.28125 Z M 4.640625 -0.640625 C 5.210938 -0.609375 5.734375 -0.710938 6.203125 -0.953125 C 6.679688 -1.203125 7.0625 -1.566406 7.34375 -2.046875 C 7.625 -2.535156 7.78125 -3.101562 7.8125 -3.75 C 7.832031 -4.40625 7.722656 -4.984375 7.484375 -5.484375 C 7.253906 -5.984375 6.914062 -6.375 6.46875 -6.65625 C 6.03125 -6.945312 5.519531 -7.109375 4.9375 -7.140625 C 4.363281 -7.160156 3.84375 -7.046875 3.375 -6.796875 C 2.90625 -6.554688 2.523438 -6.195312 2.234375 -5.71875 C 1.953125 -5.238281 1.800781 -4.671875 1.78125 -4.015625 C 1.75 -3.367188 1.851562 -2.789062 2.09375 -2.28125 C 2.332031 -1.78125 2.671875 -1.382812 3.109375 -1.09375 C 3.554688 -0.8125 4.066406 -0.660156 4.640625 -0.640625 Z M 4.640625 -0.640625 "/></g></g></g></svg>